<svg xmlns="http://www.w3.org/2000/svg" width="22" height="23" viewBox="0 0 22 23">
    <path fill="none" fill-rule="evenodd" stroke="#0A0B09" stroke-linecap="round" stroke-linejoin="round" stroke-width="2" d="M15 22v-3.87a3.375 3.375 0 0 0-.939-2.61c3.139-.35 6.439-1.54 6.439-7A5.437 5.437 0 0 0 19 4.77 5.067 5.067 0 0 0 18.91 1S17.73.65 15 2.48a13.384 13.384 0 0 0-7 0C5.27.65 4.09 1 4.09 1A5.067 5.067 0 0 0 4 4.77a5.443 5.443 0 0 0-1.5 3.78c0 5.42 3.3 6.61 6.44 7A3.368 3.368 0 0 0 8 18.13V22m0-3c-5 1.5-5-2.5-7-3"/>
</svg>
