<?xml version="1.0" encoding="UTF-8"?>
<svg width="309px" height="299px" viewBox="0 0 309 299" version="1.1" xmlns="http://www.w3.org/2000/svg" xmlns:xlink="http://www.w3.org/1999/xlink">
    <!-- Generator: Sketch 45.2 (43514) - http://www.bohemiancoding.com/sketch -->
    <title>Artboard</title>
    <desc>Created with Sketch.</desc>
    <defs></defs>
    <g id="logo" stroke="none" stroke-width="1" fill="none" fill-rule="evenodd">
        <g id="Artboard" fill="#000000">
            <g id="Group-2-Copy-9" transform="translate(47.000000, 42.000000)">
                <polygon id="M-Copy-8" points="97.1059929 119.599471 97.3587286 119.599471 123.769611 50.8553571 143.230261 50.8553571 143.230261 140.3238 130.719843 140.3238 130.719843 65.5140286 130.467107 65.5140286 100.770661 140.3238 92.8094857 140.3238 63.2394071 65.5140286 62.9866714 65.5140286 62.9866714 140.3238 50.8553571 140.3238 50.8553571 50.8553571 70.3160071 50.8553571"></polygon>
                <rect id="Rectangle-2-Copy-21" x="0" y="50.8553571" width="12.3285714" height="164.894643"></rect>
                <rect id="Rectangle-2-Copy-22" transform="translate(75.512500, 209.585714) rotate(-270.000000) translate(-75.512500, -209.585714) " x="69.3482143" y="141.778571" width="12.3285714" height="135.614286"></rect>
                <rect id="Rectangle-2-Copy-23" transform="translate(209.585714, 69.348214) rotate(-180.000000) translate(-209.585714, -69.348214) " x="203.421429" y="0" width="12.3285714" height="138.696429"></rect>
                <rect id="Rectangle-2-Copy-24" transform="translate(129.835268, 6.164286) rotate(-450.000000) translate(-129.835268, -6.164286) " x="123.670982" y="-72.815625" width="12.3285714" height="157.959821"></rect>
            </g>
        </g>
    </g>
</svg>